<svg width="128" height="48" viewBox="0 0 128 48" fill="none" xmlns="http://www.w3.org/2000/svg">
<path d="M17.6694 26.386H20.3346V47.6182H17.6694V26.386Z" fill="white"/>
<path d="M28.0131 30.4904V47.6182H25.3479V26.386H28.0779L40.4097 43.1604V26.386H43.0784V47.6182H40.5069L28.0131 30.4904Z" fill="white"/>
<path d="M61.5797 42.907H50.7246L48.8302 47.6182H45.8733L54.4846 26.386H57.7909L66.4311 47.6182H63.4778L61.5797 42.907ZM51.4953 40.5515H60.7802L56.1522 28.7415L51.4953 40.5515Z" fill="white"/>
<path d="M71.8947 30.4904V47.6182H69.2295V26.386H71.9595L84.2949 43.1604V26.386H86.96V47.6182H84.3885L71.8947 30.4904Z" fill="white"/>
<path d="M91.1052 37.0182C91.1052 30.4905 95.9529 26.0363 102.025 26.0363C105.911 26.0363 108.548 27.8494 110.251 30.2371L108 31.4791C106.779 29.6981 104.564 28.3919 102.025 28.3919C97.4332 28.3919 93.8676 31.9574 93.8676 37.0182C93.8676 42.047 97.4332 45.6446 102.025 45.6446C104.564 45.6446 106.779 44.3705 108 42.5574L110.28 43.7994C108.483 46.2157 105.911 48.0002 102.025 48.0002C95.9529 48.0002 91.1052 43.5425 91.1052 37.0182Z" fill="white"/>
<path d="M0 47.6181H2.66516V44.9485H0V47.6181Z" fill="white"/>
<path d="M0 26.386V28.7308H4.53798V28.7415H14.0353V26.386H0Z" fill="white"/>
<path d="M2.66516 35.5691H0V37.9353H2.96049V37.9425H13.812V35.5833H2.66516V35.5691Z" fill="white"/>
<path d="M113.687 35.5691V37.9603H116.356V37.9425H127.499V35.5833H116.356V35.5691H113.687Z" fill="white"/>
<path d="M113.687 26.386V28.7308H116.572V28.7415H127.726V26.386H113.687Z" fill="white"/>
<path d="M116.356 45.2269H113.687V47.6182H127.726V45.2626H116.356V45.2269Z" fill="white"/>
<path d="M6.70612 2.35167H0V0.0210876H16.0774V2.35167H9.34247V21.0213H6.70612V2.35167Z" fill="white"/>
<path d="M20.4138 0H29.8499C33.5343 0 35.7925 2.2021 35.7925 5.34999C35.7925 7.99822 34.0133 9.76132 32.0757 10.1682C34.3303 10.5144 36.2067 12.8128 36.2067 15.3326C36.2067 18.7018 33.9485 21.0002 30.0732 21.0002H20.4138V0ZM29.4033 9.10105C31.7876 9.10105 33.0589 7.65202 33.0589 5.72831C33.0589 3.84029 31.7876 2.33058 29.4033 2.33058H23.0502V9.10105H29.4033ZM29.533 18.6696C32.0109 18.6696 33.4731 17.2849 33.4731 15.0506C33.4731 13.1305 32.1369 11.4281 29.533 11.4281H23.0502V18.6696H29.533Z" fill="white"/>
<path d="M40.4097 0.017868H54.2937V2.34845H43.046V9.11535H54.0704V11.4459H43.046V21.0181H40.4097V0.017868Z" fill="white"/>
</svg>
