<svg width="153" height="18" viewBox="0 0 153 18" fill="none" xmlns="http://www.w3.org/2000/svg">
<path d="M69.5492 0.286613H71.5709V17.6882H69.5492V0.286613Z" fill="#104A9D"/>
<path d="M77.3943 3.65281V17.6882H75.3726V0.286613H77.4414L86.7947 14.0356V0.286613H88.8164V17.6882H86.8675L77.3943 3.65281Z" fill="#104A9D"/>
<path d="M102.847 13.827H94.6142L93.1787 17.6882H90.9366L97.4638 0.286613H99.9733L106.524 17.6882H104.284L102.847 13.827ZM95.2004 11.8953H102.239L98.7304 2.21834L95.2004 11.8953Z" fill="#104A9D"/>
<path d="M110.666 3.65281V17.6882H108.644V0.286613H110.715L120.069 14.0356V0.286613H122.09V17.6882H120.141L110.666 3.65281Z" fill="#104A9D"/>
<path d="M125.233 9.00115C125.233 3.65281 128.911 0.000175476 133.515 0.000175476C136.46 0.000175476 138.459 1.48735 139.749 3.44428L138.044 4.46171C137.119 2.99974 135.438 1.92961 133.515 1.92961C130.032 1.92961 127.327 4.85126 127.327 9.00115C127.327 13.1212 130.032 16.0704 133.515 16.0704C135.438 16.0704 137.119 15.0255 138.044 13.5406L139.774 14.558C138.409 16.5401 136.46 17.9998 133.515 17.9998C128.911 17.9998 125.233 14.3495 125.233 9.00115Z" fill="#104A9D"/>
<path d="M56.1545 17.6882H58.1741V15.5021H56.1545V17.6882Z" fill="#104A9D"/>
<path d="M56.1545 0.286613V2.20917H59.5925V2.21834H66.7958V0.286613H56.1545Z" fill="#104A9D"/>
<path d="M58.1741 7.81417H56.1545V9.75277H58.3987V9.75735H66.6268V7.82563H58.1741V7.81417Z" fill="#104A9D"/>
<path d="M142.357 7.81417V9.77339H144.378V9.75735H152.829V7.82563H144.378V7.81417H142.357Z" fill="#104A9D"/>
<path d="M142.357 0.286613V2.20917H144.543V2.21834H153V0.286613H142.357Z" fill="#104A9D"/>
<path d="M144.378 15.729H142.357V17.6882H153V15.7565H144.378V15.729Z" fill="#104A9D"/>
<path d="M5.08317 2.31376H0V0.404953H12.1902V2.31376H7.08349V17.6163H5.08317V2.31376Z" fill="#104A9D"/>
<path d="M15.4785 0.38744H22.6326C25.4266 0.38744 27.1381 2.19313 27.1381 4.77335C27.1381 6.9411 25.7882 8.38703 24.3184 8.72159C26.0299 9.00573 27.4526 10.8893 27.4526 12.954C27.4526 15.7152 25.7411 17.5988 22.8016 17.5988H15.4785V0.38744ZM22.2946 7.84395C24.1023 7.84395 25.0651 6.65696 25.0651 5.0827C25.0651 3.53595 24.1023 2.29625 22.2946 2.29625H17.4767V7.84395H22.2946ZM22.3908 15.69C24.2714 15.69 25.3796 14.5534 25.3796 12.7225C25.3796 11.1483 24.3676 9.75276 22.3908 9.75276H17.4767V15.69H22.3908Z" fill="#104A9D"/>
<path d="M30.6381 0.401957H41.1681V2.31077H32.6384V7.85847H40.9969V9.76728H32.6384V17.6133H30.6381V0.401957Z" fill="#104A9D"/>
</svg>
